<?xml version="1.0" encoding="iso-8859-1"?>
<!-- Generator: Adobe Illustrator 19.0.0, SVG Export Plug-In . SVG Version: 6.00 Build 0)  -->
<svg version="1.1" id="Capa_1" xmlns="http://www.w3.org/2000/svg" xmlns:xlink="http://www.w3.org/1999/xlink" x="0px" y="0px"
	 viewBox="0 0 511 511" style="enable-background:new 0 0 511 511;" xml:space="preserve">
<path fill="#03a9f4" d="M487.5,144H479V63h8.5c12.958,0,23.5-10.542,23.5-23.5S500.458,16,487.5,16h-384C72.897,16,48,40.897,48,71.5v64
	c0,15.964,6.784,30.365,17.61,40.5H7.5c-4.142,0-7.5,3.358-7.5,7.5s3.358,7.5,7.5,7.5H16v97H7.5c-4.142,0-7.5,3.358-7.5,7.5
	s3.358,7.5,7.5,7.5h50.381C28,321.171,8,354.044,8,391.5C8,448.57,54.43,495,111.5,495h368c12.958,0,23.5-10.542,23.5-23.5
	c0-10.336-6.71-19.128-16-22.266V333.766c9.29-3.138,16-11.93,16-22.266c0-12.958-10.542-23.5-23.5-23.5h-17.051
	c5.346-6.739,8.551-15.25,8.551-24.5v-48c0-9.25-3.205-17.761-8.551-24.5H487.5c12.958,0,23.5-10.542,23.5-23.5
	S500.458,144,487.5,144z M31,288v-17h392.5c4.142,0,7.5-3.358,7.5-7.5s-3.358-7.5-7.5-7.5H31v-9h392.5c4.142,0,7.5-3.358,7.5-7.5
	s-3.358-7.5-7.5-7.5H31v-9h392.5c4.142,0,7.5-3.358,7.5-7.5s-3.358-7.5-7.5-7.5H31v-17h72.5h328c13.509,0,24.5,10.991,24.5,24.5v48
	c0,13.509-10.991,24.5-24.5,24.5h-320H31z M479.5,303c4.687,0,8.5,3.813,8.5,8.5s-3.813,8.5-8.5,8.5h-368
	C72.075,320,40,352.075,40,391.5S72.075,463,111.5,463h368c4.687,0,8.5,3.813,8.5,8.5s-3.813,8.5-8.5,8.5h-368
	C62.701,480,23,440.299,23,391.5S62.701,303,111.5,303h320H479.5z M119.5,367H472v17H119.5c-4.142,0-7.5,3.358-7.5,7.5
	s3.358,7.5,7.5,7.5H472v17H119.5c-4.142,0-7.5,3.358-7.5,7.5s3.358,7.5,7.5,7.5H472v17H111.5c-5.739,0-11.278-0.866-16.5-2.464
	V337.464c5.222-1.598,10.761-2.464,16.5-2.464H472v17H119.5c-4.142,0-7.5,3.358-7.5,7.5S115.358,367,119.5,367z M80,344.619v93.762
	C64.931,428.223,55,411,55,391.5S64.931,354.777,80,344.619z M487.5,176h-56h-328C81.168,176,63,157.832,63,135.5v-64
	C63,49.168,81.168,31,103.5,31h384c4.687,0,8.5,3.813,8.5,8.5s-3.813,8.5-8.5,8.5h-384C90.542,48,80,58.542,80,71.5v64
	c0,12.958,10.542,23.5,23.5,23.5h384c4.687,0,8.5,3.813,8.5,8.5S492.187,176,487.5,176z M119.5,95H464v17H119.5
	c-4.142,0-7.5,3.358-7.5,7.5s3.358,7.5,7.5,7.5H464v17H103.5c-4.687,0-8.5-3.813-8.5-8.5v-64c0-4.687,3.813-8.5,8.5-8.5H464v17
	H119.5c-4.142,0-7.5,3.358-7.5,7.5S115.358,95,119.5,95z"/>
<g>
</g>
<g>
</g>
<g>
</g>
<g>
</g>
<g>
</g>
<g>
</g>
<g>
</g>
<g>
</g>
<g>
</g>
<g>
</g>
<g>
</g>
<g>
</g>
<g>
</g>
<g>
</g>
<g>
</g>
</svg>
